<svg width="124" height="55" viewBox="0 0 124 55" fill="none" xmlns="http://www.w3.org/2000/svg">
<path fill-rule="evenodd" clip-rule="evenodd" d="M85.5214 19.0972L78.2754 41.715H78.1739L70.8258 19.0972H60.4168L57.7637 53.4722H65.8759L67.1517 30.0582H67.3052L74.9076 53.4722H81.439L88.9906 30.0582H89.0921L90.47 53.4722H98.5835L95.9805 19.0972H85.5214Z" fill="#317D7A"/>
<path fill-rule="evenodd" clip-rule="evenodd" d="M102.435 19.0972V53.4722H110.49V40.3703H123.2V33.9432H110.49V25.5237H124V19.0972H102.435Z" fill="#317D7A"/>
<mask id="mask0" mask-type="alpha" maskUnits="userSpaceOnUse" x="0" y="0" width="17" height="32">
<path fill-rule="evenodd" clip-rule="evenodd" d="M0 0.538757H16.3483V31.3889H0V0.538757Z" fill="white"/>
</mask>
<g mask="url(#mask0)">
<path fill-rule="evenodd" clip-rule="evenodd" d="M6.32092 14.3363C7.07299 13.8631 7.76554 13.2966 8.34563 12.6216C8.41442 12.5411 8.48123 12.4605 8.54605 12.3793C8.58045 12.3361 8.6122 12.2928 8.64593 12.2489C8.67504 12.2116 8.7048 12.1736 8.73258 12.135C8.77624 12.0758 8.81725 12.0165 8.85892 11.9566C8.87413 11.9347 8.89067 11.912 8.90588 11.8901C8.95285 11.8208 8.99915 11.7496 9.04346 11.6791C9.0514 11.6671 9.05934 11.6558 9.06662 11.6431C9.11556 11.5659 9.16187 11.4874 9.20684 11.4088C9.20949 11.4041 9.2128 11.3995 9.21544 11.3942C9.26307 11.311 9.30871 11.2271 9.35236 11.1432C9.35236 11.1432 9.35236 11.1425 9.35303 11.1425C9.44166 10.9721 9.52236 10.8004 9.59578 10.626C10.5245 8.42936 9.72146 3.431 7.52146 0.538757C13.9964 3.21134 16.9035 9.4924 16.2613 16.5862C16.2295 16.8744 16.1931 17.152 16.1515 17.4209L8.62609 24.2538C8.22657 22.6729 8.06121 20.9742 8.2861 19.4758C6.34672 21.8974 5.35784 24.5993 5.19645 27.3697L0.769335 31.3889C-1.42802 24.9375 1.28527 17.5088 6.32092 14.3363Z" fill="#D67927"/>
</g>
<path fill-rule="evenodd" clip-rule="evenodd" d="M13.0154 53.8741H4.07715V32.138L13.0154 24.4444V53.8741Z" fill="#317D7A"/>
<path fill-rule="evenodd" clip-rule="evenodd" d="M48.007 19.0972L46.6589 42.7071H46.5597L39.1719 19.0972H32.7823L25.3442 42.7071H25.1947L23.9466 19.0972H21.5806H18.7059L16.1738 21.2765L18.0292 46.052L18.606 53.7589H28.7891L35.9771 30.9531H36.077L43.1658 53.7589H53.3978L55.9444 19.0972H48.007Z" fill="#317D7A"/>
</svg>
